# xmcd
#
# Track frame offsets: 
#        150
#        16200
#        32572
#        48172
#        61875
#        78975
#        87975
#        100960
#        118650
#        133672
#        151950
#        168375
#
# Disc length: 2547 seconds
#
# Revision: 3
# Processed by: cddbd v1.5.2PL0 Copyright (c) Steve Scherf et al.
# Submitted via: ExactAudioCopy v1.0b1
#
DISCID=8d09f10c
DTITLE=Krüger Brothers - Up18North
DYEAR=2002
DGENRE=Bluegrass
TTITLE0=Carolina In The Fall
TTITLE1=Up18North
TTITLE2=Drought
TTITLE3=Shower
TTITLE4=Tennessee Stud
TTITLE5=Waterfall
TTITLE6=My Cabin In Caroline
TTITLE7=Dusty Trail
TTITLE8=Red Rocking Chair
TTITLE9=John's Gone
TTITLE10=When The Works All Done This Fall
TTITLE11=Sarah
EXTD=
EXTT0=
EXTT1=
EXTT2=
EXTT3=
EXTT4=
EXTT5=
EXTT6=
EXTT7=
EXTT8=
EXTT9=
EXTT10=
EXTT11=
PLAYORDER=
